<svg width="166" height="166" viewBox="0 0 166 166" fill="none" xmlns="http://www.w3.org/2000/svg">
<g filter="url(#filter0_d_243_290)">
<circle cx="83" cy="68" r="58" fill="#22A75D"/>
</g>
<path d="M100.841 55.6807C100.235 55.4285 99.5683 55.3622 98.925 55.4902C98.2816 55.6183 97.691 55.935 97.2282 56.3999L92.9428 60.6853L85.3432 53.0856C84.7216 52.4643 83.8788 52.1152 83 52.1152C82.1211 52.1152 81.2783 52.4643 80.6568 53.0856L73.0571 60.6853L68.7717 56.3999C68.3082 55.9365 67.7177 55.621 67.0749 55.4932C66.4321 55.3653 65.7658 55.431 65.1603 55.6818C64.5548 55.9326 64.0372 56.3572 63.673 56.9021C63.3089 57.4471 63.1144 58.0877 63.1143 58.7431V76.2856C63.1169 78.4823 63.9907 80.5883 65.544 82.1416C67.0973 83.6949 69.2033 84.5687 71.4 84.5713H94.6C96.7967 84.5687 98.9026 83.6949 100.456 82.1416C102.009 80.5883 102.883 78.4823 102.886 76.2856V58.7431C102.886 58.0876 102.692 57.4469 102.328 56.9018C101.964 56.3567 101.446 55.9317 100.841 55.6807V55.6807Z" fill="#191F30"/>
<defs>
<filter id="filter0_d_243_290" x="0" y="0" width="166" height="166" filterUnits="userSpaceOnUse" color-interpolation-filters="sRGB">
<feFlood flood-opacity="0" result="BackgroundImageFix"/>
<feColorMatrix in="SourceAlpha" type="matrix" values="0 0 0 0 0 0 0 0 0 0 0 0 0 0 0 0 0 0 127 0" result="hardAlpha"/>
<feOffset dy="15"/>
<feGaussianBlur stdDeviation="12.5"/>
<feColorMatrix type="matrix" values="0 0 0 0 0.133333 0 0 0 0 0.654902 0 0 0 0 0.364706 0 0 0 0.25 0"/>
<feBlend mode="normal" in2="BackgroundImageFix" result="effect1_dropShadow_243_290"/>
<feBlend mode="normal" in="SourceGraphic" in2="effect1_dropShadow_243_290" result="shape"/>
</filter>
</defs>
</svg>
