<svg width="52" height="52" viewBox="0 0 52 52" fill="none" xmlns="http://www.w3.org/2000/svg">
<g filter="url(#filter0_d_252_317)">
<path d="M5.51295 25.8268C6.12176 26.5577 6.88358 27.1461 7.74464 27.5504C8.6057 27.9547 9.54501 28.1652 10.4963 28.1668L20.3763 28.1668L19.1629 31.2651C18.6583 32.6217 18.4902 34.0805 18.6731 35.5163C18.8561 36.9521 19.3846 38.3221 20.2134 39.5088C21.0421 40.6955 22.1464 41.6634 23.4314 42.3295C24.7164 42.9957 26.1439 43.3402 27.5913 43.3334C28.0081 43.3326 28.4157 43.2115 28.7655 42.9848C29.1152 42.758 29.3921 42.4353 29.5629 42.0551L35.7379 28.1668H40.8296C42.5535 28.1668 44.2068 27.482 45.4258 26.263C46.6448 25.044 47.3296 23.3907 47.3296 21.6668L47.3296 6.50011C47.3296 4.77621 46.6448 3.12291 45.4258 1.90392C44.2068 0.684937 42.5535 0.000118256 40.8296 0.000118256L13.2479 0.000118256C11.7274 0.000625048 10.2551 0.534219 9.08725 1.50806C7.91942 2.48191 7.12998 3.83436 6.85628 5.33011L4.10461 20.4968C3.93442 21.4341 3.97235 22.3974 4.21572 23.3185C4.45909 24.2395 4.90195 25.0958 5.51295 25.8268ZM36.4963 4.33345H40.8296C41.4042 4.33345 41.9553 4.56172 42.3617 4.96805C42.768 5.37438 42.9963 5.92548 42.9963 6.50011L42.9963 21.6668C42.9963 22.2414 42.768 22.7925 42.3617 23.1988C41.9553 23.6052 41.4042 23.8334 40.8296 23.8334H36.4963L36.4963 4.33345ZM8.32961 21.2768L11.0813 6.11012C11.1736 5.60537 11.442 5.14977 11.8388 4.82441C12.2355 4.49906 12.7349 4.32508 13.2479 4.33345L32.1629 4.33345L32.1629 25.5451L26.2696 38.8051C25.663 38.6283 25.0996 38.3276 24.615 37.922C24.1304 37.5165 23.7352 37.0149 23.4543 36.4489C23.1733 35.8829 23.0127 35.2648 22.9827 34.6336C22.9526 34.0025 23.0537 33.3719 23.2796 32.7818L24.4279 29.6834C24.6726 29.0286 24.7552 28.3242 24.6687 27.6305C24.5822 26.9367 24.3291 26.2742 23.9311 25.6995C23.533 25.1248 23.0018 24.6549 22.3828 24.33C21.7638 24.005 21.0754 23.8347 20.3763 23.8334H10.4963C10.178 23.834 9.86346 23.7643 9.57511 23.6295C9.28676 23.4947 9.03166 23.298 8.82794 23.0534C8.61922 22.8122 8.46633 22.5279 8.38019 22.2208C8.29405 21.9137 8.27678 21.5913 8.32961 21.2768Z" fill="#FF0000"/>
</g>
<defs>
<filter id="filter0_d_252_317" x="6.10352e-05" y="0" width="51.3295" height="51.3335" filterUnits="userSpaceOnUse" color-interpolation-filters="sRGB">
<feFlood flood-opacity="0" result="BackgroundImageFix"/>
<feColorMatrix in="SourceAlpha" type="matrix" values="0 0 0 0 0 0 0 0 0 0 0 0 0 0 0 0 0 0 127 0" result="hardAlpha"/>
<feOffset dy="4"/>
<feGaussianBlur stdDeviation="2"/>
<feComposite in2="hardAlpha" operator="out"/>
<feColorMatrix type="matrix" values="0 0 0 0 1 0 0 0 0 0 0 0 0 0 0 0 0 0 1 0"/>
<feBlend mode="normal" in2="BackgroundImageFix" result="effect1_dropShadow_252_317"/>
<feBlend mode="normal" in="SourceGraphic" in2="effect1_dropShadow_252_317" result="shape"/>
</filter>
</defs>
</svg>
