<svg width="173" height="166" viewBox="0 0 173 166" fill="none" xmlns="http://www.w3.org/2000/svg">
<g filter="url(#filter0_d_246_298)">
<ellipse cx="86.0995" cy="68" rx="61.0995" ry="58" fill="#FFD100"/>
</g>
<path d="M113.9 64.9H110.583C109.891 59.4439 107.405 54.3726 103.516 50.4837C99.6274 46.5948 94.5561 44.1089 89.1 43.417V40.1C89.1 39.2778 88.7734 38.4893 88.192 37.908C87.6107 37.3266 86.8222 37 86 37C85.1778 37 84.3893 37.3266 83.808 37.908C83.2266 38.4893 82.9 39.2778 82.9 40.1V43.417C77.4439 44.1089 72.3726 46.5948 68.4837 50.4837C64.5948 54.3726 62.1089 59.4439 61.417 64.9H58.1C57.2778 64.9 56.4893 65.2266 55.908 65.808C55.3266 66.3893 55 67.1778 55 68C55 68.8222 55.3266 69.6107 55.908 70.192C56.4893 70.7734 57.2778 71.1 58.1 71.1H61.417C62.1089 76.5561 64.5948 81.6274 68.4837 85.5163C72.3726 89.4052 77.4439 91.8911 82.9 92.583V95.9C82.9 96.7222 83.2266 97.5107 83.808 98.092C84.3893 98.6734 85.1778 99 86 99C86.8222 99 87.6107 98.6734 88.192 98.092C88.7734 97.5107 89.1 96.7222 89.1 95.9V92.583C94.5561 91.8911 99.6274 89.4052 103.516 85.5163C107.405 81.6274 109.891 76.5561 110.583 71.1H113.9C114.722 71.1 115.511 70.7734 116.092 70.192C116.673 69.6107 117 68.8222 117 68C117 67.1778 116.673 66.3893 116.092 65.808C115.511 65.2266 114.722 64.9 113.9 64.9ZM86 86.6C82.3213 86.6 78.7251 85.5091 75.6664 83.4653C72.6076 81.4215 70.2236 78.5166 68.8158 75.1179C67.4081 71.7192 67.0397 67.9794 67.7574 64.3713C68.4751 60.7633 70.2466 57.4491 72.8478 54.8478C75.4491 52.2466 78.7633 50.4751 82.3713 49.7574C85.9794 49.0397 89.7192 49.4081 93.1179 50.8158C96.5166 52.2236 99.4215 54.6076 101.465 57.6664C103.509 60.7251 104.6 64.3213 104.6 68C104.6 72.933 102.64 77.664 99.1522 81.1522C95.664 84.6404 90.933 86.6 86 86.6ZM86 58.7C84.1606 58.7 82.3626 59.2454 80.8332 60.2673C79.3038 61.2892 78.1118 62.7417 77.4079 64.441C76.704 66.1404 76.5199 68.0103 76.8787 69.8143C77.2375 71.6184 78.1233 73.2755 79.4239 74.5761C80.7245 75.8767 82.3816 76.7625 84.1857 77.1213C85.9897 77.4801 87.8596 77.296 89.559 76.5921C91.2583 75.8882 92.7108 74.6962 93.7327 73.1668C94.7546 71.6374 95.3 69.8394 95.3 68C95.3 65.5335 94.3202 63.168 92.5761 61.4239C90.832 59.6798 88.4665 58.7 86 58.7ZM86 71.1C85.3869 71.1 84.7875 70.9182 84.2777 70.5776C83.7679 70.2369 83.3706 69.7528 83.136 69.1863C82.9013 68.6199 82.84 67.9966 82.9596 67.3952C83.0792 66.7939 83.3744 66.2415 83.808 65.808C84.2415 65.3744 84.7939 65.0792 85.3952 64.9596C85.9966 64.84 86.6199 64.9013 87.1863 65.136C87.7528 65.3706 88.2369 65.7679 88.5776 66.2777C88.9182 66.7875 89.1 67.3869 89.1 68C89.1 68.8222 88.7734 69.6107 88.192 70.192C87.6107 70.7734 86.8222 71.1 86 71.1Z" fill="black"/>
<defs>
<filter id="filter0_d_246_298" x="0" y="0" width="172.199" height="166" filterUnits="userSpaceOnUse" color-interpolation-filters="sRGB">
<feFlood flood-opacity="0" result="BackgroundImageFix"/>
<feColorMatrix in="SourceAlpha" type="matrix" values="0 0 0 0 0 0 0 0 0 0 0 0 0 0 0 0 0 0 127 0" result="hardAlpha"/>
<feOffset dy="15"/>
<feGaussianBlur stdDeviation="12.5"/>
<feColorMatrix type="matrix" values="0 0 0 0 1 0 0 0 0 0.819608 0 0 0 0 0 0 0 0 0.5 0"/>
<feBlend mode="normal" in2="BackgroundImageFix" result="effect1_dropShadow_246_298"/>
<feBlend mode="normal" in="SourceGraphic" in2="effect1_dropShadow_246_298" result="shape"/>
</filter>
</defs>
</svg>
