<svg width="52" height="52" viewBox="0 0 52 52" fill="none" xmlns="http://www.w3.org/2000/svg">
<g filter="url(#filter0_d_252_315)">
<path d="M45.8167 17.5068C45.2079 16.7758 44.446 16.1874 43.585 15.7831C42.7239 15.3788 41.7846 15.1684 40.8333 15.1668H30.9533L32.1667 12.0684C32.6714 10.7118 32.8394 9.25307 32.6565 7.81726C32.4735 6.38144 31.945 5.01144 31.1162 3.82476C30.2875 2.63808 29.1832 1.67016 27.8982 1.00401C26.6132 0.337858 25.1857 -0.00662876 23.7383 9.66143e-05C23.3216 0.000966232 22.9139 0.122026 22.5642 0.348763C22.2144 0.575499 21.9375 0.898288 21.7667 1.27843L15.5917 15.1668H10.5C8.77609 15.1668 7.12279 15.8516 5.90381 17.0706C4.68482 18.2896 4 19.9429 4 21.6668V36.8334C4 38.5573 4.68482 40.2106 5.90381 41.4296C7.12279 42.6486 8.77609 43.3334 10.5 43.3334H38.0817C39.6023 43.3329 41.0745 42.7993 42.2424 41.8255C43.4102 40.8516 44.1996 39.4992 44.4733 38.0034L47.225 22.8368C47.3952 21.8994 47.3573 20.9361 47.1139 20.0151C46.8705 19.094 46.4277 18.2377 45.8167 17.5068ZM14.8333 39.0001H10.5C9.92536 39.0001 9.37426 38.7718 8.96794 38.3655C8.56161 37.9592 8.33333 37.4081 8.33333 36.8334V21.6668C8.33333 21.0921 8.56161 20.541 8.96794 20.1347C9.37426 19.7284 9.92536 19.5001 10.5 19.5001H14.8333V39.0001ZM43 22.0568L40.2483 37.2234C40.156 37.7282 39.8876 38.1838 39.4908 38.5091C39.0941 38.8345 38.5947 39.0085 38.0817 39.0001H19.1667V17.7884L25.06 4.52843C25.6666 4.70529 26.23 5.00598 26.7146 5.41153C27.1992 5.81708 27.5944 6.31868 27.8754 6.88466C28.1563 7.45065 28.3169 8.06874 28.347 8.69991C28.377 9.33109 28.2759 9.96164 28.05 10.5518L26.9017 13.6501C26.657 14.305 26.5744 15.0093 26.6609 15.7031C26.7474 16.3968 27.0005 17.0593 27.3986 17.634C27.7966 18.2088 28.3278 18.6786 28.9468 19.0036C29.5658 19.3285 30.2542 19.4989 30.9533 19.5001H40.8333C41.1516 19.4996 41.4662 19.5692 41.7545 19.704C42.0428 19.8388 42.298 20.0355 42.5017 20.2801C42.7104 20.5213 42.8633 20.8056 42.9494 21.1127C43.0356 21.4198 43.0528 21.7422 43 22.0568Z" fill="#22A75D"/>
</g>
<defs>
<filter id="filter0_d_252_315" x="0" y="0" width="51.3296" height="51.3335" filterUnits="userSpaceOnUse" color-interpolation-filters="sRGB">
<feFlood flood-opacity="0" result="BackgroundImageFix"/>
<feColorMatrix in="SourceAlpha" type="matrix" values="0 0 0 0 0 0 0 0 0 0 0 0 0 0 0 0 0 0 127 0" result="hardAlpha"/>
<feOffset dy="4"/>
<feGaussianBlur stdDeviation="2"/>
<feComposite in2="hardAlpha" operator="out"/>
<feColorMatrix type="matrix" values="0 0 0 0 0.133333 0 0 0 0 0.654902 0 0 0 0 0.364706 0 0 0 1 0"/>
<feBlend mode="normal" in2="BackgroundImageFix" result="effect1_dropShadow_252_315"/>
<feBlend mode="normal" in="SourceGraphic" in2="effect1_dropShadow_252_315" result="shape"/>
</filter>
</defs>
</svg>
