<svg width="173" height="166" viewBox="0 0 173 166" fill="none" xmlns="http://www.w3.org/2000/svg">
<g filter="url(#filter0_d_246_295)">
<ellipse cx="86.0995" cy="68" rx="61.0995" ry="58" fill="#2278D4"/>
</g>
<path d="M66.3634 68.4978L72.7453 72.8626L70.3216 79.8916C69.9299 80.9817 69.925 82.1613 70.3075 83.2543C70.69 84.3473 71.4394 85.2953 72.4441 85.957C73.4316 86.6399 74.6283 87.0057 75.8558 86.9999C77.0833 86.9942 78.276 86.6172 79.2562 85.9251L85.4964 81.6241L91.7384 85.92C92.7241 86.599 93.9143 86.9678 95.138 86.9734C96.3616 86.979 97.5556 86.6211 98.5483 85.9511C99.541 85.2811 100.281 84.3337 100.663 83.2449C101.044 82.1561 101.047 80.982 100.671 79.8916L98.2476 72.8626L104.629 68.4978C105.614 67.8238 106.346 66.8757 106.72 65.7889C107.095 64.7021 107.093 63.5323 106.715 62.4465C106.338 61.3606 105.603 60.4144 104.617 59.7428C103.631 59.0713 102.443 58.7088 101.223 58.7072H93.3841L91.0052 51.7638C90.6311 50.6709 89.8961 49.7174 88.906 49.041C87.9159 48.3645 86.722 48 85.4964 48C84.2708 48 83.0769 48.3645 82.0868 49.041C81.0968 49.7174 80.3617 50.6709 79.9876 51.7638L77.6087 58.7072H69.7766C68.5572 58.7088 67.3695 59.0713 66.3831 59.7428C65.3968 60.4144 64.6623 61.3606 64.2845 62.4465C63.9068 63.5323 63.9051 64.7021 64.2798 65.7889C64.6544 66.8757 65.3862 67.8238 66.3706 68.4978H66.3634Z" fill="#191F30"/>
<defs>
<filter id="filter0_d_246_295" x="0" y="0" width="172.199" height="166" filterUnits="userSpaceOnUse" color-interpolation-filters="sRGB">
<feFlood flood-opacity="0" result="BackgroundImageFix"/>
<feColorMatrix in="SourceAlpha" type="matrix" values="0 0 0 0 0 0 0 0 0 0 0 0 0 0 0 0 0 0 127 0" result="hardAlpha"/>
<feOffset dy="15"/>
<feGaussianBlur stdDeviation="12.5"/>
<feColorMatrix type="matrix" values="0 0 0 0 0.133333 0 0 0 0 0.470588 0 0 0 0 0.831373 0 0 0 0.25 0"/>
<feBlend mode="normal" in2="BackgroundImageFix" result="effect1_dropShadow_246_295"/>
<feBlend mode="normal" in="SourceGraphic" in2="effect1_dropShadow_246_295" result="shape"/>
</filter>
</defs>
</svg>
